<svg width="101" height="101" viewBox="0 0 101 101" fill="none" xmlns="http://www.w3.org/2000/svg">
<path d="M14.8281 85.4517C-4.66161 65.962 -4.66161 34.2533 14.8281 14.7635C34.3178 -4.72619 66.0265 -4.72619 85.5163 14.7635C105.006 34.2533 105.006 65.962 85.5163 85.4517C66.0265 104.941 34.3178 104.941 14.8281 85.4517ZM83.1606 17.1192C64.9696 -1.07187 35.3748 -1.07187 17.1885 17.1192C-1.00256 35.3102 -1.00256 64.905 17.1885 83.0913C35.3795 101.282 64.9743 101.282 83.1606 83.0913C101.352 64.9003 101.352 35.3055 83.1606 17.1192Z" fill="white"/>
<path d="M83.7002 39.5049C83.5248 39.3295 83.3827 39.1068 83.3021 38.8603C81.5721 33.7414 78.7472 29.2055 74.908 25.3663C71.0736 21.5319 66.5329 18.707 61.414 16.9723C60.7363 16.74 60.2812 16.1097 60.2812 15.394V3.24606C60.2812 2.73417 60.5182 2.25071 60.9211 1.93315C61.3287 1.61559 61.8548 1.50658 62.3478 1.62982C71.0973 3.81957 79.1074 8.36021 85.506 14.7636C91.9046 21.1669 96.4453 29.1723 98.6351 37.9218C98.7583 38.4195 98.6446 38.9456 98.3317 39.3532C98.0142 39.7608 97.5307 39.9931 97.0188 39.9931H84.8709C84.4159 39.9931 83.9988 39.8082 83.6907 39.5002L83.7002 39.5049ZM77.2636 23.0107C81.1786 26.9257 84.1315 31.5137 86.0558 36.6611H94.8433C92.6346 29.305 88.62 22.5841 83.1551 17.1192C77.6902 11.6543 70.9693 7.63978 63.618 5.43581V14.2233C68.7654 16.1428 73.3534 19.0957 77.2684 23.0154L77.2636 23.0107Z" fill="white"/>
<path d="M14.8269 85.4516C8.42831 79.053 3.88291 71.0429 1.69316 62.2933C1.56992 61.7957 1.68368 61.2696 1.99651 60.8667C2.31407 60.4591 2.7975 60.2268 3.30939 60.2268H15.4573C16.173 60.2268 16.8081 60.6818 17.0356 61.3596C18.7656 66.4785 21.5905 71.0144 25.4296 74.8536C29.2641 78.688 33.8048 81.5129 38.9237 83.2476C39.6015 83.4751 40.0564 84.1103 40.0564 84.826V96.9739C40.0564 97.4857 39.8194 97.9692 39.4166 98.2868C39.0089 98.6043 38.4828 98.7133 37.9852 98.5901C29.2356 96.4003 21.2303 91.8597 14.8269 85.4611V85.4516ZM5.49442 63.5541C7.70313 70.9101 11.7177 77.6311 17.1826 83.0959C22.6475 88.5608 29.3684 92.5754 36.7244 94.7841V85.9967C31.5771 84.0771 26.989 81.1242 23.074 77.2092C19.159 73.2942 16.2062 68.7062 14.2818 63.5588H5.49442V63.5541Z" fill="white"/>
<path d="M60.7773 98.1447C60.4644 97.8319 60.2891 97.4101 60.2891 96.9646V84.8167C60.2891 84.101 60.7441 83.4659 61.4219 83.2383C66.5408 81.5083 71.0767 78.6835 74.9158 74.8443C78.755 71.0051 81.5751 66.4692 83.3098 61.3503C83.5374 60.6725 84.1725 60.2175 84.8882 60.2175H97.0361C97.548 60.2175 98.0315 60.4545 98.349 60.8574C98.6666 61.2603 98.7756 61.7911 98.6524 62.284C96.4579 71.0336 91.9172 79.0389 85.5186 85.4423C79.12 91.8457 71.1098 96.3863 62.3603 98.5761C61.8626 98.6993 61.3365 98.5855 60.9337 98.2727C60.8815 98.2253 60.8294 98.1827 60.782 98.1353L60.7773 98.1447ZM63.6211 85.9921V94.7795C70.9771 92.5708 77.6981 88.5563 83.1629 83.0914C88.6278 77.6265 92.6377 70.9056 94.8511 63.5495H86.0637C84.1441 68.6969 81.1912 73.2802 77.2715 77.1999C73.3564 81.1149 68.7684 84.0725 63.6211 85.9921Z" fill="white"/>
<path d="M2.12995 39.5049C2.08255 39.4575 2.03517 39.4054 1.99725 39.3532C1.67969 38.9503 1.57067 38.4195 1.6939 37.9218C3.88365 29.1723 8.42431 21.1622 14.8277 14.7636C21.231 8.36494 29.2364 3.81955 37.9859 1.6298C38.4836 1.50657 39.0097 1.62032 39.4126 1.93314C39.8154 2.2507 40.0525 2.73416 40.0525 3.24605V15.394C40.0525 16.1096 39.5975 16.7448 38.9197 16.9723C33.8008 18.7023 29.2648 21.5271 25.4256 25.3663C21.5912 29.2007 18.7664 33.7414 17.0316 38.8603C16.8041 39.5381 16.169 39.9931 15.4533 39.9931H3.30542C2.85988 39.9931 2.43328 39.8177 2.1252 39.5096L2.12995 39.5049ZM36.7204 5.4358C29.3644 7.64451 22.6434 11.6591 17.1786 17.1239C11.7137 22.5888 7.70387 29.3098 5.49042 36.6658H14.2778C16.1974 31.5185 19.1503 26.9352 23.07 23.0154C26.985 19.1004 31.5731 16.1476 36.7204 14.2232V5.4358Z" fill="white"/>
<path d="M77.2675 23.0107C62.3279 8.07108 38.0131 8.06634 23.0735 23.0107C8.12921 37.955 8.13395 62.265 23.0735 77.2046C38.0131 92.1442 62.3231 92.1489 77.2675 77.2046C92.2118 62.2603 92.2071 37.9503 77.2675 23.0107Z" fill="white"/>
<path d="M63.9943 63.7852L36.4666 63.9678C35.307 63.9755 34.3732 64.9217 34.3809 66.0813L34.3874 67.0624C34.3951 68.222 35.3414 69.1558 36.501 69.1482L64.0286 68.9656C65.1882 68.9579 66.1221 68.0116 66.1144 66.852L66.1079 65.8709C66.1002 64.7113 65.1539 63.7775 63.9943 63.7852Z" fill="#110A1D"/>
<path d="M40.2172 47.1689C39.9186 47.1689 39.6152 47.1026 39.3403 46.9699L37.1932 45.9319C36.2595 45.4769 35.8329 44.3725 36.2216 43.4104L37.2075 40.9552C37.5108 40.2063 38.2265 39.7181 39.0323 39.7134C39.3783 39.7134 39.7195 39.7987 40.0228 39.9741L42.5823 41.4339C43.061 41.7041 43.407 42.1733 43.5302 42.7136C43.6535 43.2539 43.5445 43.8227 43.2316 44.2777L41.8287 46.3111C41.4637 46.8419 40.857 47.1642 40.2124 47.1642L40.2172 47.1689Z" fill="#110A1D"/>
<path d="M60.032 47.0365C59.3874 47.0365 58.776 46.7284 58.4063 46.2023L57.0176 44.2448C56.6953 43.7945 56.5816 43.2257 56.6953 42.6854C56.8091 42.1451 57.1503 41.6711 57.629 41.3915L60.269 39.8416C60.5676 39.6662 60.9089 39.5714 61.2549 39.5667C62.0607 39.5619 62.7859 40.0406 63.0987 40.7848L64.094 43.1689C64.4921 44.1263 64.0798 45.2401 63.1555 45.7046L60.9089 46.8279C60.6388 46.9606 60.3354 47.0365 60.0368 47.0365H60.032Z" fill="#110A1D"/>
<path d="M38.0545 62.1276C36.8459 62.1371 35.7605 61.3787 35.3481 60.2412L30.7554 47.6003C30.4615 47.7425 30.1486 47.8516 29.8311 47.9321C29.4566 48.0269 29.0775 48.0743 28.6935 48.0743C28.4708 48.0743 28.2527 48.0648 28.0395 48.0364C25.6459 47.7331 23.8306 45.6808 23.8164 43.2635C23.7974 40.5903 25.9587 38.4006 28.6319 38.3816C31.3051 38.3626 33.4949 40.524 33.5091 43.1972C33.5091 43.8133 33.4048 44.4058 33.1868 44.9603C33.0683 45.2637 32.9214 45.5528 32.7508 45.8277L41.486 50.0555L48.1691 40.3723C47.8894 40.2538 47.6192 40.1069 47.3633 39.9315C46.8798 39.6044 46.458 39.1968 46.1167 38.7181C45.5385 37.9029 45.2257 36.9407 45.2209 35.9454C45.202 33.2722 47.3633 31.0824 50.0365 31.0635C50.155 31.0635 50.2782 31.0635 50.3967 31.073C52.7903 31.2341 54.7241 33.1537 54.8995 35.5472C54.98 36.68 54.6815 37.7654 54.0369 38.6897C53.6956 39.1731 53.2785 39.5855 52.7997 39.9125C52.5485 40.0879 52.2784 40.2348 51.9988 40.3533L58.8002 49.937L67.3934 45.6381C67.2322 45.33 67.1043 45.0077 67.0095 44.6712C66.8957 44.2636 66.8341 43.837 66.8341 43.4057C66.8341 43.2114 66.8435 43.017 66.8625 42.8275C67.1374 40.3912 69.1944 38.5428 71.6449 38.5285C74.3181 38.5096 76.5078 40.6709 76.5221 43.3441C76.541 45.8941 74.5598 48.0364 72.0146 48.2118L71.7112 48.2212C71.2183 48.2212 70.7349 48.1549 70.2657 48.0127C69.9623 47.9179 69.6684 47.7994 69.3935 47.6477L65.0804 60.0421C64.687 61.1844 63.6063 61.9522 62.3977 61.9617L38.0545 62.1228V62.1276Z" fill="#110A1D"/>
</svg>
