<svg width="100" height="100" viewBox="0 0 100 100" fill="none" xmlns="http://www.w3.org/2000/svg">
<path d="M49.6153 99.4071C36.9167 99.4071 24.2286 94.5775 14.559 84.9078C-4.76983 65.579 -4.76983 34.1345 14.559 14.8057C23.9268 5.43793 36.3755 0.285645 49.6153 0.285645C62.8551 0.285645 75.3038 5.43793 84.6716 14.8057C104 34.1345 104 65.579 84.6716 84.9078C75.0124 94.5671 62.3138 99.4071 49.6153 99.4071ZM17.1612 82.3057C35.0536 100.198 64.1665 100.198 82.059 82.3057C99.9514 64.4132 99.9514 35.3003 82.059 17.4079C73.3886 8.73747 61.8662 3.97028 49.6049 3.97028C37.3435 3.97028 25.8211 8.74788 17.1507 17.4079C-0.7417 35.3003 -0.7417 64.4132 17.1507 82.3057H17.1612Z" fill="#7DDACF"/>
<path d="M51.45 39.4224L42.2695 52.2874H47.7757V61.4678L56.9561 48.6131H51.45V39.4224Z" fill="#7DDACF"/>
<path d="M49.6057 32.2715C39.551 32.2715 31.3906 40.4319 31.3906 50.4866C31.3906 60.5413 39.551 68.6809 49.6057 68.6809C59.6605 68.6809 67.8209 60.5205 67.8209 50.4866C67.8209 40.4527 59.6605 32.2715 49.6057 32.2715ZM49.6057 66.4326C40.7792 66.4326 33.6181 59.2715 33.6181 50.445C33.6181 41.6185 40.7792 34.4573 49.6057 34.4573C58.4323 34.4573 65.5935 41.6185 65.5935 50.445C65.5935 59.2715 58.4323 66.4326 49.6057 66.4326Z" fill="#7DDACF"/>
<path d="M77.7626 21.7068C70.2476 14.1813 60.2448 10.0491 49.6072 10.0491C38.9696 10.0491 28.9773 14.1917 21.4518 21.7068C5.93256 37.226 5.93256 62.4878 21.4518 78.0175C29.2167 85.7823 39.4067 89.6647 49.6072 89.6647C59.8076 89.6647 69.9977 85.7823 77.7626 78.0175C93.2819 62.4982 93.2819 37.2364 77.7626 21.7068ZM49.6072 75.1968C35.9927 75.1968 24.9075 64.1115 24.9075 50.497C24.9075 44.4808 27.0621 38.9643 30.6427 34.6551L27.6241 31.6366C26.7602 30.7727 26.7602 29.3675 27.6241 28.4932C28.4881 27.6189 29.8932 27.6293 30.7676 28.4932L33.7861 31.5117C37.5332 28.3787 42.2483 26.3178 47.3901 25.8806V23.8405H45.3501C43.5494 23.8405 42.0609 22.3521 42.0609 20.5514V18.834C42.0609 17.0125 43.5494 15.5449 45.3501 15.5449H53.8852C55.6859 15.5449 57.1743 17.0125 57.1743 18.834V20.5514C57.1743 22.3521 55.6859 23.8405 53.8852 23.8405H51.8451V25.8806C56.9973 26.3282 61.702 28.3891 65.4492 31.5117L68.4676 28.4932C69.3315 27.6293 70.7367 27.6293 71.611 28.4932C72.475 29.3571 72.475 30.7622 71.611 31.6366L68.5925 34.6551C72.1731 38.9643 74.3277 44.4704 74.3277 50.497C74.3277 64.1115 63.2425 75.1968 49.628 75.1968H49.6072Z" fill="#7DDACF"/>
</svg>
