<svg width="77" height="77" viewBox="0 0 77 77" fill="none" xmlns="http://www.w3.org/2000/svg">
<path d="M65.7858 11.2522C50.9431 -3.59056 26.8678 -3.59056 12.0147 11.2522C-2.82799 26.0949 -2.82799 50.1701 12.0147 65.0232C26.8574 79.8659 50.9326 79.8659 65.7858 65.0232C80.6285 50.1805 80.6285 26.1053 65.7858 11.2522ZM46.2487 14.4684C50.5787 15.8112 54.4611 18.3196 57.4796 21.7337L58.0625 22.3894L57.2091 22.5872C54.9504 23.118 52.5356 23.5552 50.0375 23.8778L49.5899 23.9403L49.465 23.5031C49.0487 22.0771 48.5594 20.7032 47.9974 19.4333C47.3 17.8408 46.5194 16.446 45.6659 15.2699L44.7291 13.9896L46.2487 14.458V14.4684ZM28.8767 36.9511L28.8976 36.4098C29.0016 33.1207 29.3659 29.9773 29.9905 27.0837L30.0842 26.6257L30.5525 26.6673C36.0274 27.1461 41.8771 27.1253 47.3209 26.6153L47.7892 26.5737L47.8933 27.0317C48.5282 29.9565 48.8925 33.1103 48.9862 36.4098V36.9511H28.8871H28.8767ZM48.9862 39.3659V39.9071C48.8717 43.2067 48.5074 46.3605 47.8725 49.2853L47.7684 49.7433L47.3 49.7016C41.8563 49.1916 36.0067 49.1812 30.5317 49.6496L30.0633 49.6912L29.9696 49.2332C29.3451 46.3396 28.9808 43.2067 28.8767 39.9071L28.8559 39.3659H48.9654H48.9862ZM38.9315 13.5629C41.9604 13.5629 45.0413 17.4036 46.9669 23.5968L47.1647 24.2213L46.509 24.2734C43.9484 24.4919 41.3046 24.6064 38.6504 24.6064C36.1836 24.6064 33.7271 24.5127 31.3331 24.315L30.6774 24.2629L30.8752 23.628C32.8008 17.4141 35.8922 13.5525 38.9315 13.5525V13.5629ZM20.2792 21.8481C23.3185 18.3821 27.2322 15.832 31.6142 14.4789L33.1443 14.0105L32.1971 15.3011C31.3436 16.4669 30.5525 17.872 29.8656 19.4542C29.3139 20.7032 28.8143 22.0979 28.3771 23.5968L28.2522 24.0236L27.8047 23.9715C25.2858 23.6593 22.8501 23.2429 20.5602 22.7121L19.6963 22.5143L20.2792 21.8481ZM14.2006 36.389C14.492 32.3297 15.7931 28.3744 17.9685 24.9291L18.1767 24.6064L18.5514 24.7001C21.216 25.3767 24.0887 25.9179 27.1072 26.3031L27.6694 26.3759L27.5548 26.938C26.9303 29.9565 26.5764 33.1519 26.4828 36.4411V36.9511H14.1693L14.211 36.389H14.2006ZM18.1767 51.7105L17.9685 51.3878C15.7931 47.953 14.492 43.9873 14.2006 39.9279L14.1589 39.3659H26.4619V39.8759C26.566 43.165 26.9303 46.3709 27.5445 49.379L27.6589 49.941L27.0968 50.0139C24.0887 50.399 21.2056 50.9403 18.541 51.6169L18.1663 51.7105H18.1767ZM31.6142 61.8485C27.2322 60.4954 23.3185 57.9453 20.2792 54.4792L19.6963 53.8131L20.5602 53.6153C22.8501 53.0949 25.2858 52.6681 27.8047 52.3558L28.2522 52.3038L28.3771 52.7306C28.8143 54.2294 29.3139 55.6242 29.8656 56.8732C30.5629 58.4657 31.3436 59.8605 32.1971 61.0367L33.1443 62.3273L31.6142 61.8589V61.8485ZM38.9315 62.7541C35.8922 62.7541 32.8008 58.8925 30.8752 52.6785L30.6774 52.0436L31.3331 51.9916C36.2981 51.596 41.5857 51.6064 46.509 52.0332L47.1647 52.0852L46.9669 52.7098C45.0309 58.8925 41.95 62.7437 38.9315 62.7437V62.7541ZM57.4796 54.5833C54.4611 57.9973 50.5683 60.5058 46.2487 61.8485L44.7291 62.3169L45.6659 61.0367C46.5194 59.8709 47.3 58.4657 47.9974 56.8732C48.549 55.5929 49.0487 54.2294 49.465 52.8034L49.5899 52.3663L50.0375 52.4287C52.5356 52.7514 54.9504 53.1885 57.2091 53.7194L58.0625 53.9275L57.4796 54.5833ZM63.652 39.9279C63.3606 44.0289 62.0387 48.0363 59.8112 51.5127L59.603 51.8354L59.2283 51.7418C56.595 51.0444 53.7325 50.4927 50.7349 50.0868L50.1728 50.0139L50.2873 49.4623C50.9118 46.4438 51.2761 43.2275 51.3698 39.8863V39.3763H63.6832L63.6416 39.9383L63.652 39.9279ZM51.3906 36.9511V36.4411C51.2865 33.0999 50.9222 29.8732 50.2977 26.8651L50.1832 26.3135L50.7453 26.2406C53.743 25.8347 56.5949 25.283 59.2387 24.5856L59.6134 24.492L59.8216 24.8146C62.049 28.2911 63.3813 32.288 63.6624 36.3994L63.704 36.9615H51.401L51.3906 36.9511Z" fill="#478BF9"/>
</svg>
