<svg width="32" height="32" viewBox="0 0 32 32" fill="none" xmlns="http://www.w3.org/2000/svg">
<g clip-path="url(#clip0_114_201)">
<path fill-rule="evenodd" clip-rule="evenodd" d="M0 16C0 24.8202 7.17648 32 16 32C24.8202 32 32 24.8202 32 16C32 7.17982 24.8202 0 16 0C7.17984 0 0 7.17982 0 16ZM5.94191 4.96936C8.59784 2.54552 12.1292 1.06554 16 1.06554C19.8696 1.06554 23.4 2.54462 26.0557 4.96715L24.8681 6.1547C22.5199 4.03823 19.4105 2.75 16 2.75C12.5883 2.75 9.47794 4.03912 7.12944 6.15689L5.94191 4.96936ZM4.96751 5.94395C2.54476 8.59964 1.06554 12.1302 1.06554 16C1.06554 19.8694 2.54451 23.3997 4.96688 26.0553L6.15441 24.8678C4.03812 22.5196 2.75 19.4104 2.75 16C2.75 12.5893 4.03837 9.47974 6.15505 7.13149L4.96751 5.94395ZM5.94122 27.03C8.59723 29.4542 12.1289 30.9344 16 30.9344C19.8692 30.9344 23.3992 29.4557 26.0548 27.0337L24.8672 25.8461C22.5191 27.9621 19.4101 29.25 16 29.25C12.5879 29.25 9.47731 27.9606 7.12874 25.8425L5.94122 27.03ZM30.9345 16C30.9345 19.8714 29.454 23.4033 27.0295 26.0593L25.842 24.8718C27.9604 22.5232 29.25 19.4123 29.25 16C29.25 12.5881 27.9607 9.47761 25.8428 7.12907L27.0303 5.94154C29.4543 8.5975 30.9345 12.129 30.9345 16Z" fill="url(#paint0_linear_114_201)"/>
<path d="M14.6666 17.9999L18.1266 15.9999L14.6666 13.9999V17.9999ZM22.3733 12.7799C22.4599 13.0933 22.5199 13.5133 22.5599 14.0466C22.6066 14.5799 22.6266 15.0399 22.6266 15.4399L22.6666 15.9999C22.6666 17.4599 22.5599 18.5333 22.3733 19.2199C22.2066 19.8199 21.8199 20.2066 21.2199 20.3733C20.9066 20.4599 20.3333 20.5199 19.4533 20.5599C18.5866 20.6066 17.7933 20.6266 17.0599 20.6266L15.9999 20.6666C13.2066 20.6666 11.4666 20.5599 10.7799 20.3733C10.1799 20.2066 9.79325 19.8199 9.62659 19.2199C9.53992 18.9066 9.47992 18.4866 9.43992 17.9533C9.39325 17.4199 9.37325 16.9599 9.37325 16.5599L9.33325 15.9999C9.33325 14.5399 9.43992 13.4666 9.62659 12.7799C9.79325 12.1799 10.1799 11.7933 10.7799 11.6266C11.0933 11.5399 11.6666 11.4799 12.5466 11.4399C13.4133 11.3933 14.2066 11.3733 14.9399 11.3733L15.9999 11.3333C18.7933 11.3333 20.5333 11.4399 21.2199 11.6266C21.8199 11.7933 22.2066 12.1799 22.3733 12.7799Z" fill="#1E1231"/>
</g>
<defs>
<linearGradient id="paint0_linear_114_201" x1="32" y1="-1.90735e-06" x2="-5.64706" y2="9.41176" gradientUnits="userSpaceOnUse">
<stop stop-color="#478BF9"/>
<stop offset="1" stop-color="#9DADF2"/>
</linearGradient>
<clipPath id="clip0_114_201">
<rect width="32" height="32" fill="white"/>
</clipPath>
</defs>
</svg>
