<svg width="98" height="98" viewBox="0 0 98 98" fill="none" xmlns="http://www.w3.org/2000/svg">
<path d="M97.1434 47.2644H75.4414V51.5423H97.1434V47.2644Z" fill="#478BF9"/>
<path d="M22.4207 47.2644H0.718628V51.5423H22.4207V47.2644Z" fill="#478BF9"/>
<path d="M51.4107 76.2419H47.1328V97.944H51.4107V76.2419Z" fill="#478BF9"/>
<path d="M51.4107 0.862549H47.1328V22.5645H51.4107V0.862549Z" fill="#478BF9"/>
<path d="M74.7858 22.2522C59.9431 7.40944 35.8678 7.40944 21.0147 22.2522C6.17201 37.0949 6.17201 61.1701 21.0147 76.0232C35.8574 90.8659 59.9326 90.8659 74.7858 76.0232C89.6285 61.1805 89.6285 37.1053 74.7858 22.2522ZM55.2487 25.4684C59.5787 26.8112 63.4611 29.3196 66.4796 32.7337L67.0625 33.3894L66.2091 33.5872C63.9504 34.118 61.5356 34.5552 59.0375 34.8778L58.5899 34.9403L58.465 34.5031C58.0487 33.0771 57.5594 31.7032 56.9974 30.4333C56.3 28.8408 55.5194 27.446 54.6659 26.2699L53.7291 24.9896L55.2487 25.458V25.4684ZM37.8767 47.9511L37.8976 47.4098C38.0016 44.1207 38.3659 40.9773 38.9905 38.0837L39.0842 37.6257L39.5525 37.6673C45.0274 38.1461 50.8771 38.1253 56.3209 37.6153L56.7892 37.5737L56.8933 38.0317C57.5282 40.9565 57.8925 44.1103 57.9862 47.4098V47.9511H37.8871H37.8767ZM57.9862 50.3659V50.9071C57.8717 54.2067 57.5074 57.3605 56.8725 60.2853L56.7684 60.7433L56.3 60.7016C50.8563 60.1916 45.0067 60.1812 39.5317 60.6496L39.0633 60.6912L38.9696 60.2332C38.3451 57.3396 37.9808 54.2067 37.8767 50.9071L37.8559 50.3659H57.9654H57.9862ZM47.9315 24.5629C50.9604 24.5629 54.0413 28.4036 55.9669 34.5968L56.1647 35.2213L55.509 35.2734C52.9484 35.4919 50.3046 35.6064 47.6504 35.6064C45.1836 35.6064 42.7271 35.5127 40.3331 35.315L39.6774 35.2629L39.8752 34.628C41.8008 28.4141 44.8922 24.5525 47.9315 24.5525V24.5629ZM29.2792 32.8481C32.3185 29.3821 36.2322 26.832 40.6142 25.4789L42.1443 25.0105L41.1971 26.3011C40.3436 27.4669 39.5525 28.872 38.8656 30.4542C38.3139 31.7032 37.8143 33.0979 37.3771 34.5968L37.2522 35.0236L36.8047 34.9715C34.2858 34.6593 31.8501 34.2429 29.5602 33.7121L28.6963 33.5143L29.2792 32.8481ZM23.2006 47.389C23.492 43.3297 24.7931 39.3744 26.9685 35.9291L27.1767 35.6064L27.5514 35.7001C30.216 36.3767 33.0887 36.9179 36.1072 37.3031L36.6694 37.3759L36.5548 37.938C35.9303 40.9565 35.5764 44.1519 35.4828 47.4411V47.9511H23.1693L23.211 47.389H23.2006ZM27.1767 62.7105L26.9685 62.3878C24.7931 58.953 23.492 54.9873 23.2006 50.9279L23.1589 50.3659H35.4619V50.8759C35.566 54.165 35.9303 57.3709 36.5445 60.379L36.6589 60.941L36.0968 61.0139C33.0887 61.399 30.2056 61.9403 27.541 62.6169L27.1663 62.7105H27.1767ZM40.6142 72.8485C36.2322 71.4954 32.3185 68.9453 29.2792 65.4792L28.6963 64.8131L29.5602 64.6153C31.8501 64.0949 34.2858 63.6681 36.8047 63.3558L37.2522 63.3038L37.3771 63.7306C37.8143 65.2294 38.3139 66.6242 38.8656 67.8732C39.5629 69.4657 40.3436 70.8605 41.1971 72.0367L42.1443 73.3273L40.6142 72.8589V72.8485ZM47.9315 73.7541C44.8922 73.7541 41.8008 69.8925 39.8752 63.6785L39.6774 63.0436L40.3331 62.9916C45.2981 62.596 50.5857 62.6064 55.509 63.0332L56.1647 63.0852L55.9669 63.7098C54.0309 69.8925 50.95 73.7437 47.9315 73.7437V73.7541ZM66.4796 65.5833C63.4611 68.9973 59.5683 71.5058 55.2487 72.8485L53.7291 73.3169L54.6659 72.0367C55.5194 70.8709 56.3 69.4657 56.9974 67.8732C57.549 66.5929 58.0487 65.2294 58.465 63.8034L58.5899 63.3663L59.0375 63.4287C61.5356 63.7514 63.9504 64.1885 66.2091 64.7194L67.0625 64.9275L66.4796 65.5833ZM72.652 50.9279C72.3606 55.0289 71.0387 59.0363 68.8112 62.5127L68.603 62.8354L68.2283 62.7418C65.595 62.0444 62.7325 61.4927 59.7349 61.0868L59.1728 61.0139L59.2873 60.4623C59.9118 57.4438 60.2761 54.2275 60.3698 50.8863V50.3763H72.6832L72.6416 50.9383L72.652 50.9279ZM60.3906 47.9511V47.4411C60.2865 44.0999 59.9222 40.8732 59.2977 37.8651L59.1832 37.3135L59.7453 37.2406C62.743 36.8347 65.5949 36.283 68.2387 35.5856L68.6134 35.492L68.8216 35.8146C71.049 39.2911 72.3813 43.288 72.6624 47.3994L72.704 47.9615H60.401L60.3906 47.9511Z" fill="#478BF9"/>
</svg>
